# This file uses centimeters as units for non-parametric coordinates.

mtllib Bow.mtl
g default
v 0.015020 -0.015020 0.324170
v 0.015020 -0.015020 -0.124169
v 0.015020 0.015020 0.324170
v 0.015020 0.015020 -0.124169
v -0.015020 0.015020 0.324170
v -0.015020 0.015020 -0.124169
v -0.015020 -0.015020 0.324170
v -0.015020 -0.015020 -0.124169
v -0.028365 -0.029801 -0.124169
v -0.045895 -0.011383 -0.124169
v -0.045895 0.011383 -0.124169
v -0.028365 0.029801 -0.124169
v 0.000000 0.036836 -0.124169
v 0.028365 0.029801 -0.124169
v 0.045895 0.011383 -0.124169
v 0.045895 -0.011383 -0.124169
v 0.028365 -0.029801 -0.124169
v 0.000000 -0.036836 -0.124169
v 0.000000 0.000000 -0.324170
vt 0.375000 0.000000
vt 0.625000 0.000000
vt 0.625000 0.250000
vt 0.375000 0.250000
vt 0.625000 0.500000
vt 0.375000 0.500000
vt 0.625000 0.750000
vt 0.375000 0.750000
vt 0.625000 1.000000
vt 0.375000 1.000000
vt 0.875000 0.000000
vt 0.875000 0.250000
vt 0.125000 0.000000
vt 0.125000 0.250000
vt 0.702254 0.103054
vt 0.750000 0.250000
vt 0.702254 0.396946
vt 0.577254 0.487764
vt 0.422746 0.487764
vt 0.297746 0.396946
vt 0.250000 0.250000
vt 0.297746 0.103054
vt 0.422746 0.012236
vt 0.577254 0.012236
vt 0.250000 0.500000
vt 0.300000 0.500000
vt 0.500000 1.000000
vt 0.350000 0.500000
vt 0.400000 0.500000
vt 0.450000 0.500000
vt 0.500000 0.500000
vt 0.550000 0.500000
vt 0.600000 0.500000
vt 0.650000 0.500000
vt 0.700000 0.500000
vt 0.750000 0.500000
vn 1.000000 0.000000 0.000000
vn 1.000000 0.000000 0.000000
vn 1.000000 0.000000 0.000000
vn 1.000000 0.000000 0.000000
vn 0.000000 1.000000 0.000000
vn 0.000000 1.000000 0.000000
vn 0.000000 1.000000 0.000000
vn 0.000000 1.000000 0.000000
vn -1.000000 0.000000 0.000000
vn -1.000000 0.000000 0.000000
vn -1.000000 0.000000 0.000000
vn -1.000000 0.000000 0.000000
vn 0.000000 -1.000000 0.000000
vn 0.000000 -1.000000 0.000000
vn 0.000000 -1.000000 0.000000
vn 0.000000 -1.000000 0.000000
vn 0.000000 0.000000 -1.000000
vn 0.000000 0.000000 -1.000000
vn 0.000000 0.000000 -1.000000
vn 0.000000 0.000000 -1.000000
vn 0.000000 0.000000 1.000000
vn 0.000000 0.000000 1.000000
vn 0.000000 0.000000 1.000000
vn 0.000000 0.000000 1.000000
vn -0.000000 0.000000 1.000000
vn -0.000000 0.000000 1.000000
vn -0.000000 0.000000 1.000000
vn -0.000000 0.000000 1.000000
vn -0.000000 0.000000 1.000000
vn -0.000000 0.000000 1.000000
vn -0.000000 0.000000 1.000000
vn -0.000000 0.000000 1.000000
vn -0.000000 0.000000 1.000000
vn -0.000000 0.000000 1.000000
vn -0.709527 -0.675328 -0.201254
vn -0.709527 -0.675328 -0.201254
vn -0.709527 -0.675328 -0.201254
vn -0.974667 0.000000 -0.223660
vn -0.974667 0.000000 -0.223660
vn -0.974667 0.000000 -0.223660
vn -0.709530 0.675326 -0.201254
vn -0.709530 0.675326 -0.201254
vn -0.709530 0.675326 -0.201254
vn -0.236971 0.955446 -0.175974
vn -0.236971 0.955446 -0.175974
vn -0.236971 0.955446 -0.175974
vn 0.236971 0.955446 -0.175974
vn 0.236971 0.955446 -0.175974
vn 0.236971 0.955446 -0.175974
vn 0.709530 0.675326 -0.201254
vn 0.709530 0.675326 -0.201254
vn 0.709530 0.675326 -0.201254
vn 0.974667 0.000000 -0.223660
vn 0.974667 0.000000 -0.223660
vn 0.974667 0.000000 -0.223660
vn 0.709527 -0.675328 -0.201254
vn 0.709527 -0.675328 -0.201254
vn 0.709527 -0.675328 -0.201254
vn 0.236975 -0.955445 -0.175975
vn 0.236975 -0.955445 -0.175975
vn 0.236975 -0.955445 -0.175975
vn -0.236975 -0.955445 -0.175975
vn -0.236975 -0.955445 -0.175975
vn -0.236975 -0.955445 -0.175975
s off
g polySurface2
usemtl initialShadingGroup
f 1/1/1 2/2/2 4/3/3 3/4/4
f 3/4/5 4/3/6 6/5/7 5/6/8
f 5/6/9 6/5/10 8/7/11 7/8/12
f 7/8/13 8/7/14 2/9/15 1/10/16
f 2/2/17 8/11/18 6/12/19 4/3/20
f 7/13/21 1/1/22 3/4/23 5/14/24
f 9/15/25 18/16/26 17/17/27 16/18/28 15/19/29 14/20/30 13/21/31 12/22/32 11/23/33 10/24/34
f 9/25/35 10/26/36 19/27/37
f 10/26/38 11/28/39 19/27/40
f 11/28/41 12/29/42 19/27/43
f 12/29/44 13/30/45 19/27/46
f 13/30/47 14/31/48 19/27/49
f 14/31/50 15/32/51 19/27/52
f 15/32/53 16/33/54 19/27/55
f 16/33/56 17/34/57 19/27/58
f 17/34/59 18/35/60 19/27/61
f 18/35/62 9/36/63 19/27/64
g default
v 0.000000 0.229945 0.125141
v 0.000000 0.132759 0.035887
v 0.000000 0.000000 0.003218
v 0.000000 -0.132759 0.035887
v -0.000000 -0.229944 0.125141
v 0.000000 -0.225575 0.197764
v 0.000000 0.225575 0.197764
v -0.037707 0.297294 0.089431
v -0.037707 0.171643 -0.025965
v -0.037707 0.000000 -0.068203
v -0.037707 -0.171643 -0.025965
v -0.037707 -0.297294 0.089431
v -0.019561 -0.291644 0.197764
v -0.019561 0.291644 0.197764
v -0.053326 0.308093 0.117023
v -0.053326 0.177877 -0.061485
v -0.053326 0.000000 -0.126823
v -0.053326 -0.177877 -0.061485
v -0.053326 -0.308093 0.117023
v -0.027663 -0.302238 0.197764
v -0.027663 0.302238 0.197764
v -0.019560 0.354287 0.138599
v -0.019561 0.204548 -0.063832
v -0.019561 0.000000 -0.137927
v -0.019561 -0.204547 -0.063832
v -0.019561 -0.354287 0.138599
v -0.019561 -0.409095 0.197764
v -0.019561 0.409095 0.197764
v -0.000000 0.392618 0.108681
v 0.000000 0.226678 -0.115652
v 0.000000 0.000000 -0.197764
v 0.000000 -0.226679 -0.115652
v 0.000000 -0.392618 0.108681
v 0.000000 -0.453357 0.197764
v -0.000000 0.453357 0.197764
v 0.019560 0.354287 0.138599
v 0.019560 0.204547 -0.063832
v 0.019561 -0.000000 -0.137927
v 0.019561 -0.204547 -0.063832
v 0.019561 -0.354287 0.138599
v 0.019561 -0.409095 0.197764
v 0.019560 0.409095 0.197764
v 0.053326 0.308093 0.117023
v 0.053326 0.177877 -0.061485
v 0.053326 0.000000 -0.126823
v 0.053326 -0.177877 -0.061485
v 0.053326 -0.308093 0.117023
v 0.027663 -0.302238 0.197764
v 0.027663 0.302238 0.197764
v 0.037707 0.297294 0.089431
v 0.037707 0.171643 -0.025965
v 0.037707 0.000000 -0.068203
v 0.037707 -0.171643 -0.025965
v 0.037707 -0.297294 0.089431
v 0.019561 -0.291644 0.197764
v 0.019560 0.291644 0.197764
v -0.000090 0.228957 0.123038
v -0.000090 0.132889 0.034811
v -0.037363 0.295532 0.087738
v -0.037363 0.171326 -0.026330
v -0.052803 0.305660 0.116322
v -0.052803 0.176942 -0.060133
v -0.037363 0.001658 -0.068082
v -0.052803 0.001111 -0.124720
v 0.037184 0.295532 0.087738
v 0.037184 0.171326 -0.026330
v 0.037184 0.001658 -0.068082
v 0.037184 -0.168011 -0.026330
v -0.000090 0.001658 0.002517
v -0.000090 -0.129574 0.034811
vt 0.000000 1.000000
vt 0.083333 1.000000
vt 0.166667 1.000000
vt 0.250000 1.000000
vt 0.333333 1.000000
vt 0.416667 1.000000
vt 0.916667 1.000000
vt 1.000000 1.000000
vt 0.000000 0.875000
vt 0.083333 0.875000
vt 0.166667 0.875000
vt 0.250000 0.875000
vt 0.333333 0.875000
vt 0.416667 0.875000
vt 0.916667 0.875000
vt 1.000000 0.875000
vt 0.000000 0.750000
vt 0.083333 0.750000
vt 0.166667 0.750000
vt 0.250000 0.750000
vt 0.333333 0.750000
vt 0.416667 0.750000
vt 0.916667 0.750000
vt 1.000000 0.750000
vt 0.000000 0.625000
vt 0.083333 0.625000
vt 0.166667 0.625000
vt 0.250000 0.625000
vt 0.333333 0.625000
vt 0.416667 0.625000
vt 0.916667 0.625000
vt 1.000000 0.625000
vt 0.000000 0.500000
vt 0.083333 0.500000
vt 0.166667 0.500000
vt 0.250000 0.500000
vt 0.333333 0.500000
vt 0.416667 0.500000
vt 0.916667 0.500000
vt 1.000000 0.500000
vt 0.000000 0.375000
vt 0.083333 0.375000
vt 0.166667 0.375000
vt 0.250000 0.375000
vt 0.333333 0.375000
vt 0.416667 0.375000
vt 0.916667 0.375000
vt 1.000000 0.375000
vt 0.000000 0.250000
vt 0.083333 0.250000
vt 0.166667 0.250000
vt 0.250000 0.250000
vt 0.333333 0.250000
vt 0.416667 0.250000
vt 0.916667 0.250000
vt 1.000000 0.250000
vt 0.000000 0.125000
vt 0.083333 0.125000
vt 0.166667 0.125000
vt 0.250000 0.125000
vt 0.333333 0.125000
vt 0.416667 0.125000
vt 0.916667 0.125000
vt 1.000000 0.125000
vt 0.000000 0.000000
vt 0.083333 0.000000
vt 0.166667 0.000000
vt 0.250000 0.000000
vt 0.333333 0.000000
vt 0.416667 0.000000
vt 0.916667 0.000000
vt 1.000000 0.000000
vt 0.000000 1.000000
vt 0.000000 0.875000
vt 0.083333 0.875000
vt 0.083333 1.000000
vt 0.000000 0.750000
vt 0.083333 0.750000
vt 0.166667 0.875000
vt 0.166667 0.750000
vt 0.083333 0.125000
vt 0.000000 0.125000
vt 0.000000 0.000000
vt 0.083333 0.000000
vt 0.250000 0.125000
vt 0.166667 0.125000
vt 0.166667 0.000000
vt 0.250000 0.000000
vn -0.885488 -0.314302 0.342234
vn -0.885488 -0.314302 0.342234
vn -0.885489 -0.314302 0.342234
vn -0.885488 -0.314302 0.342234
vn -0.878539 -0.114140 0.463833
vn -0.878539 -0.114140 0.463833
vn -0.878539 -0.114140 0.463833
vn -0.878539 -0.114140 0.463833
vn -0.878540 0.114140 0.463833
vn -0.878539 0.114140 0.463833
vn -0.878540 0.114140 0.463833
vn -0.878540 0.114140 0.463833
vn -0.885489 0.314302 0.342234
vn -0.885489 0.314302 0.342234
vn -0.885489 0.314302 0.342234
vn -0.885489 0.314302 0.342234
vn -0.923373 0.377147 0.071716
vn -0.923373 0.377147 0.071716
vn -0.923373 0.377147 0.071716
vn -0.923373 0.377147 0.071716
vn -0.923372 -0.377148 0.071716
vn -0.923372 -0.377148 0.071716
vn -0.923372 -0.377148 0.071716
vn -0.923372 -0.377148 0.071716
vn -0.444007 -0.675805 0.588342
vn -0.444007 -0.675805 0.588342
vn -0.444007 -0.675805 0.588342
vn -0.444007 -0.675805 0.588342
vn -0.943513 -0.097467 0.316675
vn -0.943513 -0.097467 0.316675
vn -0.943513 -0.097467 0.316675
vn -0.943513 -0.097467 0.316675
vn -0.946702 0.094753 0.307858
vn -0.946702 0.094753 0.307858
vn -0.946702 0.094753 0.307858
vn -0.946702 0.094753 0.307858
vn -0.500373 0.653017 0.568503
vn -0.500373 0.653016 0.568503
vn -0.500373 0.653016 0.568503
vn -0.500373 0.653017 0.568503
vn -0.605568 0.790432 0.092221
vn -0.605568 0.790432 0.092221
vn -0.605568 0.790432 0.092221
vn -0.605569 0.790432 0.092221
vn -0.605571 -0.790430 0.092221
vn -0.605571 -0.790430 0.092221
vn -0.605571 -0.790430 0.092221
vn -0.605571 -0.790430 0.092221
vn -0.573905 0.659888 -0.484955
vn -0.573905 0.659888 -0.484955
vn -0.573905 0.659888 -0.484955
vn -0.573905 0.659888 -0.484955
vn -0.306849 0.326020 -0.894178
vn -0.306849 0.326020 -0.894178
vn -0.306849 0.326020 -0.894178
vn -0.306849 0.326020 -0.894178
vn -0.306848 -0.326021 -0.894178
vn -0.306848 -0.326021 -0.894178
vn -0.306848 -0.326021 -0.894178
vn -0.306848 -0.326021 -0.894178
vn -0.573905 -0.659887 -0.484956
vn -0.573905 -0.659887 -0.484956
vn -0.573905 -0.659887 -0.484956
vn -0.573905 -0.659887 -0.484956
vn -0.963859 -0.251130 0.088933
vn -0.963859 -0.251130 0.088933
vn -0.963859 -0.251130 0.088933
vn -0.963859 -0.251130 0.088933
vn -0.963859 0.251130 0.088931
vn -0.963859 0.251130 0.088931
vn -0.963859 0.251130 0.088931
vn -0.963859 0.251130 0.088931
vn -0.927706 0.300126 -0.222004
vn -0.927706 0.300126 -0.222004
vn -0.927706 0.300126 -0.222004
vn -0.927706 0.300126 -0.222004
vn -0.944539 0.111847 -0.308767
vn -0.944539 0.111847 -0.308767
vn -0.944539 0.111847 -0.308767
vn -0.944539 0.111847 -0.308767
vn -0.944539 -0.111847 -0.308767
vn -0.944539 -0.111847 -0.308767
vn -0.944539 -0.111847 -0.308767
vn -0.944539 -0.111847 -0.308767
vn -0.927705 -0.300127 -0.222005
vn -0.927705 -0.300127 -0.222005
vn -0.927705 -0.300127 -0.222005
vn -0.927705 -0.300127 -0.222005
vn -0.905610 -0.334507 -0.260722
vn -0.905610 -0.334507 -0.260722
vn -0.905610 -0.334507 -0.260722
vn -0.905610 -0.334507 -0.260722
vn -0.905610 0.334505 -0.260723
vn -0.905610 0.334505 -0.260723
vn -0.905610 0.334505 -0.260723
vn -0.905610 0.334505 -0.260723
vn 0.927706 0.300127 -0.222005
vn 0.927706 0.300127 -0.222005
vn 0.927706 0.300127 -0.222005
vn 0.927706 0.300127 -0.222005
vn 0.944539 0.111847 -0.308766
vn 0.944539 0.111847 -0.308766
vn 0.944539 0.111847 -0.308766
vn 0.944539 0.111847 -0.308766
vn 0.944539 -0.111847 -0.308766
vn 0.944539 -0.111847 -0.308766
vn 0.944539 -0.111847 -0.308766
vn 0.944539 -0.111847 -0.308766
vn 0.927706 -0.300127 -0.222005
vn 0.927706 -0.300127 -0.222005
vn 0.927706 -0.300127 -0.222005
vn 0.927706 -0.300127 -0.222005
vn 0.905610 -0.334507 -0.260722
vn 0.905610 -0.334507 -0.260722
vn 0.905610 -0.334507 -0.260722
vn 0.905610 -0.334507 -0.260722
vn 0.905610 0.334507 -0.260723
vn 0.905610 0.334507 -0.260723
vn 0.905610 0.334507 -0.260723
vn 0.905610 0.334507 -0.260723
vn 0.573903 0.659889 -0.484956
vn 0.573903 0.659889 -0.484956
vn 0.573903 0.659889 -0.484956
vn 0.573903 0.659889 -0.484956
vn 0.306848 0.326021 -0.894179
vn 0.306848 0.326021 -0.894179
vn 0.306848 0.326021 -0.894179
vn 0.306848 0.326021 -0.894179
vn 0.306848 -0.326021 -0.894178
vn 0.306848 -0.326021 -0.894178
vn 0.306848 -0.326021 -0.894178
vn 0.306848 -0.326021 -0.894178
vn 0.573904 -0.659888 -0.484956
vn 0.573904 -0.659888 -0.484956
vn 0.573904 -0.659888 -0.484956
vn 0.573904 -0.659888 -0.484956
vn 0.963859 -0.251130 0.088933
vn 0.963859 -0.251130 0.088933
vn 0.963859 -0.251130 0.088933
vn 0.963859 -0.251130 0.088933
vn 0.963859 0.251132 0.088932
vn 0.963859 0.251132 0.088932
vn 0.963859 0.251132 0.088932
vn 0.963859 0.251132 0.088932
vn 0.500372 -0.653017 0.568503
vn 0.500372 -0.653017 0.568503
vn 0.500372 -0.653017 0.568503
vn 0.500372 -0.653017 0.568503
vn 0.946702 -0.094754 0.307859
vn 0.946702 -0.094754 0.307859
vn 0.946702 -0.094754 0.307859
vn 0.946702 -0.094754 0.307859
vn 0.946702 0.094754 0.307859
vn 0.946702 0.094754 0.307859
vn 0.946702 0.094754 0.307859
vn 0.946702 0.094754 0.307859
vn 0.500373 0.653017 0.568504
vn 0.500373 0.653017 0.568504
vn 0.500372 0.653017 0.568504
vn 0.500373 0.653017 0.568504
vn 0.605569 0.790432 0.092221
vn 0.605569 0.790432 0.092221
vn 0.605569 0.790432 0.092221
vn 0.605569 0.790432 0.092221
vn 0.605571 -0.790430 0.092221
vn 0.605571 -0.790430 0.092221
vn 0.605571 -0.790430 0.092221
vn 0.605571 -0.790430 0.092221
vn 0.885489 -0.314302 0.342234
vn 0.885489 -0.314302 0.342234
vn 0.885489 -0.314302 0.342234
vn 0.885489 -0.314302 0.342234
vn 0.878540 -0.114139 0.463832
vn 0.878540 -0.114140 0.463832
vn 0.878540 -0.114139 0.463832
vn 0.878540 -0.114139 0.463832
vn 0.878540 0.114140 0.463832
vn 0.878540 0.114140 0.463832
vn 0.878540 0.114140 0.463832
vn 0.878540 0.114140 0.463832
vn 0.885489 0.314302 0.342234
vn 0.885489 0.314302 0.342234
vn 0.885489 0.314302 0.342234
vn 0.885489 0.314302 0.342234
vn 0.923373 0.377147 0.071716
vn 0.923373 0.377147 0.071716
vn 0.923373 0.377147 0.071716
vn 0.923373 0.377147 0.071716
vn 0.923373 -0.377147 0.071716
vn 0.923373 -0.377147 0.071716
vn 0.923373 -0.377147 0.071716
vn 0.923373 -0.377147 0.071716
vn 0.000000 -0.000000 1.000000
vn 0.000000 -0.000000 1.000000
vn 0.000000 -0.000000 1.000000
vn 0.000000 -0.000000 1.000000
vn 0.000000 -0.000000 1.000000
vn 0.000000 -0.000000 1.000000
vn 0.000000 -0.000000 1.000000
vn 0.000000 -0.000000 1.000000
vn -0.000000 0.000000 1.000000
vn -0.000000 0.000000 1.000000
vn -0.000000 0.000000 1.000000
vn -0.000000 0.000000 1.000000
vn -0.000000 0.000000 1.000000
vn -0.000000 0.000000 1.000000
vn -0.000000 0.000000 1.000000
vn -0.000000 0.000000 1.000000
vn -0.896263 -0.385559 0.219220
vn -0.896263 -0.385559 0.219220
vn -0.896263 -0.385559 0.219220
vn -0.896263 -0.385559 0.219220
vn 0.693675 0.719682 0.029546
vn 0.693675 0.719682 0.029546
vn 0.693675 0.719682 0.029546
vn 0.693675 0.719682 0.029546
vn 0.849938 -0.117367 0.513644
vn 0.849938 -0.117367 0.513644
vn 0.849938 -0.117367 0.513644
vn 0.849938 -0.117367 0.513644
vn -0.947584 -0.258127 0.188296
vn -0.947584 -0.258127 0.188296
vn -0.947584 -0.258127 0.188296
vn -0.947584 -0.258127 0.188296
vn -0.630350 0.185501 -0.753823
vn -0.630350 0.185501 -0.753823
vn -0.630350 0.185501 -0.753823
vn -0.630350 0.185501 -0.753823
vn -0.949935 -0.107732 0.293288
vn -0.949935 -0.107732 0.293288
vn -0.949935 -0.107732 0.293288
vn -0.949935 -0.107732 0.293288
vn -0.961441 0.093492 0.258630
vn -0.961441 0.093492 0.258630
vn -0.961441 0.093492 0.258630
vn -0.961441 0.093492 0.258630
vn -0.104701 -0.672693 0.732477
vn -0.104701 -0.672693 0.732477
vn -0.104701 -0.672693 0.732477
vn -0.104701 -0.672693 0.732477
vn 0.894920 -0.417436 0.157687
vn 0.894920 -0.417436 0.157688
vn 0.894920 -0.417436 0.157687
vn 0.894920 -0.417436 0.157687
vn -0.584348 0.798327 0.145639
vn -0.584348 0.798328 0.145639
vn -0.584348 0.798327 0.145639
vn -0.584348 0.798328 0.145639
vn 0.699857 0.170679 0.693592
vn 0.699857 0.170679 0.693592
vn 0.699857 0.170679 0.693592
vn 0.699857 0.170679 0.693592
vn -0.858838 -0.238323 -0.453431
vn -0.858838 -0.238323 -0.453431
vn -0.858838 -0.238323 -0.453431
vn -0.858838 -0.238323 -0.453431
vn 0.953665 -0.071893 -0.292155
vn 0.953665 -0.071893 -0.292155
vn 0.953665 -0.071893 -0.292155
vn 0.953665 -0.071893 -0.292155
vn 0.885397 0.171115 0.432195
vn 0.885397 0.171115 0.432195
vn 0.885397 0.171115 0.432195
vn 0.885397 0.171115 0.432195
s off
g pTorus1
usemtl initialShadingGroup
f 77/112/65 76/109/66 78/110/67 79/111/68
f 22/39/69 21/38/70 28/46/71 29/47/72
f 23/40/73 22/39/74 29/47/75 30/48/76
f 24/41/77 23/40/78 30/48/79 31/49/80
f 25/42/81 24/41/82 31/49/83 32/50/84
f 20/44/85 26/43/86 33/51/87 27/52/88
f 79/111/89 78/110/90 80/113/91 81/114/92
f 82/115/93 79/111/94 81/114/95 83/116/96
f 30/48/97 29/47/98 36/55/99 37/56/100
f 31/49/101 30/48/102 37/56/103 38/57/104
f 32/50/105 31/49/106 38/57/107 39/58/108
f 27/52/109 33/51/110 40/59/111 34/60/112
f 35/54/113 34/53/114 41/61/115 42/62/116
f 36/55/117 35/54/118 42/62/119 43/63/120
f 37/56/121 36/55/122 43/63/123 44/64/124
f 38/57/125 37/56/126 44/64/127 45/65/128
f 39/58/129 38/57/130 45/65/131 46/66/132
f 34/60/133 40/59/134 47/67/135 41/68/136
f 42/62/137 41/61/138 48/69/139 49/70/140
f 43/63/141 42/62/142 49/70/143 50/71/144
f 44/64/145 43/63/146 50/71/147 51/72/148
f 45/65/149 44/64/150 51/72/151 52/73/152
f 46/66/153 45/65/154 52/73/155 53/74/156
f 41/68/157 47/67/158 54/75/159 48/76/160
f 49/70/161 48/69/162 55/77/163 56/78/164
f 50/71/165 49/70/166 56/78/167 57/79/168
f 51/72/169 50/71/170 57/79/171 58/80/172
f 52/73/173 51/72/174 58/80/175 59/81/176
f 53/74/177 52/73/178 59/81/179 60/82/180
f 48/76/181 54/75/182 61/83/183 55/84/184
f 56/78/185 55/77/186 62/85/187 63/86/188
f 57/79/189 56/78/190 63/86/191 64/87/192
f 58/80/193 57/79/194 64/87/195 65/88/196
f 59/81/197 58/80/198 65/88/199 66/89/200
f 60/82/201 59/81/202 66/89/203 67/90/204
f 55/84/205 61/83/206 68/91/207 62/92/208
f 63/86/209 62/85/210 69/93/211 70/94/212
f 64/87/213 63/86/214 70/94/215 71/95/216
f 65/88/217 64/87/218 71/95/219 72/96/220
f 66/89/221 65/88/222 72/96/223 73/97/224
f 67/90/225 66/89/226 73/97/227 74/98/228
f 62/92/229 68/91/230 75/99/231 69/100/232
f 85/117/233 84/118/234 76/119/235 77/120/236
f 71/95/237 70/94/238 21/102/239 22/103/240
f 87/121/241 86/122/242 88/123/243 89/124/244
f 73/97/245 72/96/246 23/104/247 24/105/248
f 74/98/249 73/97/250 24/105/251 25/106/252
f 69/100/253 75/99/254 26/107/255 20/108/256
f 32/50/257 39/58/258 46/66/259 53/74/260 60/82/261 67/90/262 74/98/263 25/42/264
f 33/51/265 26/107/266 75/99/267 68/91/268 61/83/269 54/75/270 47/67/271 40/59/272
f 20/37/273 27/45/274 78/110/275 76/109/276
f 28/46/277 21/38/278 77/112/279 79/111/280
f 27/45/281 34/53/282 80/113/283 78/110/284
f 34/53/285 35/54/286 81/114/287 80/113/288
f 29/47/289 28/46/290 79/111/291 82/115/292
f 35/54/293 36/55/294 83/116/295 81/114/296
f 36/55/297 29/47/298 82/115/299 83/116/300
f 70/94/301 69/93/302 84/118/303 85/117/304
f 69/93/305 20/101/306 76/119/307 84/118/308
f 21/102/309 70/94/310 85/117/311 77/120/312
f 72/96/313 71/95/314 86/122/315 87/121/316
f 71/95/317 22/103/318 88/123/319 86/122/320
f 22/103/321 23/104/322 89/124/323 88/123/324
f 23/104/325 72/96/326 87/121/327 89/124/328
