# Blender v2.79 (sub 0) OBJ File: 'Assets.blend'
# www.blender.org
mtllib Hat.mtl
o Hat_Cube
v 0.398264 0.466175 -0.398264
v 0.398264 0.466175 0.398264
v -0.398264 0.466175 0.398264
v -0.398264 0.466175 -0.398264
v 0.738138 -0.038525 -0.738137
v 0.738137 -0.038525 0.738138
v -0.738138 -0.038525 0.738137
v -0.738138 -0.038525 -0.738138
v 0.696502 0.168849 -0.696502
v 0.696502 0.168849 0.696502
v -0.696502 0.168849 -0.696502
v -0.696502 0.168849 0.696502
v 0.044120 0.991033 -0.044120
v 0.044120 0.991033 0.044120
v -0.044120 0.991033 -0.044120
v -0.044120 0.991033 0.044120
v 0.966338 0.031388 -0.966337
v 0.966337 0.031388 0.966338
v -0.966337 0.031388 -0.966337
v -0.966338 0.031388 0.966337
v 0.738138 0.041286 -0.738137
v 0.738137 0.041286 0.738138
v -0.738138 0.041286 -0.738138
v -0.738138 0.041286 0.738137
v 0.630449 0.234700 0.630449
v 0.630449 0.234700 -0.630449
v -0.630449 0.234700 -0.630450
v -0.630449 0.234700 0.630449
v 0.696502 0.168849 -0.696502
v 0.696502 0.168849 0.696502
v -0.696502 0.168849 -0.696502
v -0.696502 0.168849 0.696502
v 0.630449 0.234700 -0.630449
v -0.630449 0.234700 -0.630450
v 0.630449 0.234700 0.630449
v -0.630449 0.234700 0.630449
v 0.696502 0.197003 -0.696502
v 0.696502 0.197003 0.696502
v -0.696502 0.197003 -0.696502
v -0.696502 0.197003 0.696502
v 0.630449 0.262854 -0.630449
v -0.630449 0.262854 -0.630450
v 0.630449 0.262854 0.630449
v -0.630449 0.262854 0.630449
v 0.044120 0.991033 -0.044120
v 0.044120 0.991033 0.044120
v -0.044120 0.991033 -0.044120
v -0.044120 0.991033 0.044120
vn -0.0000 0.5593 0.8289
vn 0.0000 0.0000 -1.0000
vn 0.4539 0.8910 0.0000
vn -0.0000 0.8910 0.4539
vn -0.4539 0.8910 -0.0000
vn 0.0000 0.8910 -0.4539
vn 0.0000 0.0000 1.0000
vn 0.8289 0.5593 0.0000
vn -0.8289 0.5593 0.0000
vn 0.0000 0.5593 -0.8289
vn 0.2929 -0.9561 0.0000
vn 0.0000 -0.9561 -0.2929
vn -0.0000 -0.9561 0.2929
vn -0.2929 -0.9561 -0.0000
vn 0.0000 -1.0000 -0.0000
vn -1.0000 0.0000 -0.0000
vn 1.0000 0.0000 0.0000
vn -0.7060 0.7082 -0.0000
vn -0.0000 0.7082 0.7060
vn 0.0000 0.7082 -0.7060
vn 0.7060 0.7082 0.0000
vn 0.0000 1.0000 0.0000
usemtl Material
s off
f 2//1 14//1 16//1 3//1
f 7//2 24//2 22//2 6//2
f 9//3 10//3 18//3 17//3
f 10//4 12//4 20//4 18//4
f 12//5 11//5 19//5 20//5
f 17//6 19//6 11//6 9//6
f 27//7 34//7 36//7 28//7
f 26//7 33//7 34//7 27//7
f 11//7 31//7 29//7 9//7
f 10//7 30//7 32//7 12//7
f 16//7 48//7 47//7 15//7
f 1//8 13//8 14//8 2//8
f 3//9 16//9 15//9 4//9
f 4//10 15//10 13//10 1//10
f 5//11 17//11 18//11 6//11
f 8//12 19//12 17//12 5//12
f 6//13 18//13 20//13 7//13
f 7//14 20//14 19//14 8//14
f 21//15 22//15 24//15 23//15
f 6//16 22//16 21//16 5//16
f 8//17 23//17 24//17 7//17
f 5//7 21//7 23//7 8//7
f 4//18 27//18 28//18 3//18
f 3//19 28//19 25//19 2//19
f 1//20 26//20 27//20 4//20
f 2//21 25//21 26//21 1//21
f 36//2 44//2 43//2 35//2
f 29//17 37//17 38//17 30//17
f 35//16 43//16 41//16 33//16
f 30//7 38//7 40//7 32//7
f 9//7 29//7 30//7 10//7
f 25//7 35//7 33//7 26//7
f 28//7 36//7 35//7 25//7
f 12//7 32//7 31//7 11//7
f 43//21 38//21 37//21 41//21
f 41//20 37//20 39//20 42//20
f 44//19 40//19 38//19 43//19
f 42//18 39//18 40//18 44//18
f 32//16 40//16 39//16 31//16
f 31//2 39//2 37//2 29//2
f 33//7 41//7 42//7 34//7
f 34//17 42//17 44//17 36//17
f 45//22 47//22 48//22 46//22
f 15//7 47//7 45//7 13//7
f 14//7 46//7 48//7 16//7
f 13//7 45//7 46//7 14//7
