# This file uses centimeters as units for non-parametric coordinates.

mtllib Shield.mtl
g default
v 0.895989 -0.741769 0.049029
v 0.872914 -0.723525 0.081161
v 0.849641 -0.726762 0.050396
v 0.869172 -0.745324 0.021890
v 0.540270 -0.671010 -0.223648
v 0.516348 -0.663210 -0.193191
v 0.480711 -0.655083 -0.208916
v 0.506555 -0.665904 -0.240825
v 0.019156 -0.661852 -0.337760
v 0.019331 -0.654241 -0.299268
v -0.019376 -0.653982 -0.299259
v -0.019156 -0.661852 -0.337760
v -0.506555 -0.665904 -0.240825
v -0.481031 -0.656934 -0.208853
v -0.516136 -0.664550 -0.193345
v -0.540270 -0.671010 -0.223648
v -0.869171 -0.745324 0.021889
v -0.849472 -0.726350 0.050272
v -0.873060 -0.722613 0.081559
v -0.895989 -0.741769 0.049029
v -1.011658 -0.745024 0.354785
v -0.985317 -0.731450 0.387746
v -1.022506 -0.719027 0.385151
v 1.022506 -0.719027 0.385151
v 0.985656 -0.732262 0.388672
v 1.011658 -0.745024 0.354784
v 0.869963 0.627084 0.022416
v 0.849639 0.607454 0.050395
v 0.873086 0.598221 0.081630
v 0.895907 0.617523 0.048744
v 0.504236 0.745324 -0.239360
v 0.481091 0.731185 -0.208842
v 0.516251 0.725864 -0.193262
v 0.538778 0.741387 -0.221785
v -0.019159 0.743610 -0.335872
v -0.019345 0.729653 -0.299265
v 0.019404 0.729486 -0.299254
v 0.019159 0.743610 -0.335872
v -0.538778 0.741387 -0.221785
v -0.516498 0.724967 -0.193081
v -0.480605 0.729804 -0.208937
v -0.504236 0.745324 -0.239360
v -0.895907 0.617523 0.048743
v -0.872966 0.598976 0.081300
v -0.849798 0.607792 0.050510
v -0.869962 0.627084 0.022416
v -1.022506 0.594797 0.385151
v -0.985657 0.608032 0.388672
v -1.011658 0.620794 0.354785
v 1.011658 0.620794 0.354784
v 0.985317 0.607220 0.387746
v 1.022506 0.594797 0.385151
v 0.971526 -0.662814 -0.056289
v 0.944652 -0.655448 -0.088083
v 0.951972 -0.621348 -0.103381
v 0.981939 -0.628601 -0.074919
v 0.541935 -0.503610 -0.286308
v 0.578804 -0.508478 -0.274451
v 0.573937 -0.547038 -0.268687
v 0.537017 -0.541608 -0.280506
v 0.530399 0.699559 -0.274797
v 0.570262 0.692283 -0.262330
v 0.580311 0.654326 -0.273761
v 0.540941 0.663430 -0.286502
v 0.981680 0.504934 -0.075419
v 0.953640 0.509638 -0.102616
v 0.943321 0.545141 -0.085546
v 0.970274 0.538732 -0.058248
v -0.019214 -0.503610 -0.388672
v 0.019287 -0.503536 -0.388658
v 0.019256 -0.541608 -0.381900
v -0.019256 -0.541608 -0.381900
v -0.020374 0.699559 -0.374675
v 0.019287 0.698730 -0.375623
v 0.020208 0.663430 -0.388478
v -0.020208 0.663430 -0.388478
v -0.579001 -0.508314 -0.274361
v -0.542089 -0.503767 -0.286278
v -0.537017 -0.541608 -0.280506
v -0.573937 -0.547038 -0.268688
v -0.570880 0.692843 -0.260959
v -0.531670 0.698917 -0.275117
v -0.540941 0.663430 -0.286502
v -0.580311 0.654326 -0.273761
v -0.981939 -0.628601 -0.074920
v -0.953396 -0.623417 -0.102729
v -0.942234 -0.655900 -0.087540
v -0.971526 -0.662814 -0.056290
v -0.970274 0.538732 -0.058249
v -0.943157 0.545249 -0.085499
v -0.953702 0.509694 -0.102589
v -0.981680 0.504934 -0.075420
v -1.112057 -0.628080 0.176301
v -1.098366 -0.661292 0.193925
v -1.112091 -0.633456 0.215411
v -1.111986 0.503694 0.176162
v -1.112091 0.509226 0.215411
v -1.098366 0.537062 0.193925
v 1.112091 -0.633456 0.215410
v 1.098213 -0.661362 0.193910
v 1.112057 -0.628080 0.176299
v 1.112057 0.503850 0.176299
v 1.098365 0.537062 0.193924
v 1.112091 0.509226 0.215410
vt 0.375000 0.312500
vt 0.375000 0.312500
vt 0.623929 0.323986
vt 0.625000 0.321206
vt 0.375000 0.323579
vt 0.375933 0.323123
vt 0.394841 0.337301
vt 0.394903 0.339089
vt 0.395851 0.336894
vt 0.396637 0.339516
vt 0.416171 0.337875
vt 0.415861 0.339720
vt 0.417163 0.337875
vt 0.417474 0.339782
vt 0.437483 0.336893
vt 0.436710 0.339067
vt 0.438492 0.337301
vt 0.438418 0.338744
vt 0.457352 0.318170
vt 0.457391 0.323232
vt 0.458333 0.319081
vt 0.459427 0.324230
vt 0.475712 0.318250
vt 0.476883 0.321872
vt 0.477438 0.675753
vt 0.604167 0.320858
vt 0.605880 0.312500
vt 0.605895 0.325187
vt 0.375907 0.688440
vt 0.375000 0.688440
vt 0.375937 0.683189
vt 0.394908 0.675674
vt 0.625000 0.681860
vt 0.623902 0.676667
vt 0.606450 0.679068
vt 0.607621 0.682690
vt 0.396566 0.688440
vt 0.394909 0.688440
vt 0.395932 0.678856
vt 0.415858 0.675019
vt 0.417465 0.688440
vt 0.415868 0.688440
vt 0.417178 0.678441
vt 0.436692 0.675096
vt 0.438425 0.688440
vt 0.436767 0.688440
vt 0.438487 0.679539
vt 0.457410 0.678536
vt 0.459606 0.688440
vt 0.457426 0.688440
vt 0.458333 0.679452
vt 0.476936 0.679285
vt 0.477454 0.688440
vt 0.604167 0.681460
vt 0.605731 0.312500
vt 0.375875 0.312500
vt 0.394950 0.312500
vt 0.376013 0.319792
vt 0.375252 0.683886
vt 0.396557 0.312500
vt 0.415864 0.312500
vt 0.396547 0.318597
vt 0.396584 0.682027
vt 0.415863 0.688440
vt 0.394948 0.688440
vt 0.375881 0.688440
vt 0.375928 0.681118
vt 0.623638 0.688440
vt 0.605721 0.688440
vt 0.417469 0.312500
vt 0.436776 0.312500
vt 0.417380 0.318597
vt 0.415916 0.682027
vt 0.417417 0.682027
vt 0.436741 0.688440
vt 0.438384 0.312500
vt 0.457381 0.312500
vt 0.438405 0.319019
vt 0.436750 0.682027
vt 0.438472 0.681486
vt 0.457448 0.688440
vt 0.459850 0.312500
vt 0.477612 0.312500
vt 0.459719 0.319449
vt 0.457409 0.681143
vt 0.459683 0.681671
vt 0.477612 0.688440
vt 0.479167 0.319595
vt 0.479167 0.679943
vt 0.477738 0.681275
vt 0.605586 0.319615
vt 0.605586 0.681325
vt 0.604167 0.681345
vt 0.394938 0.318947
vt 0.394862 0.681486
vt 0.415951 0.318620
vt 0.436792 0.318548
vt 0.457393 0.319271
vt 0.477748 0.319615
vt 0.623614 0.319449
vt 0.623650 0.681671
vt 0.375933 0.678440
vt 0.396621 0.675430
vt 0.417473 0.675059
vt 0.438439 0.675480
vt 0.459413 0.676868
vt 0.606397 0.321655
vt 0.375923 0.312500
vt 0.394964 0.312500
vt 0.396529 0.312500
vt 0.415869 0.312500
vt 0.396625 0.688440
vt 0.417465 0.312500
vt 0.436804 0.312500
vt 0.417516 0.688440
vt 0.438369 0.312500
vt 0.457410 0.312500
vt 0.438446 0.688440
vt 0.459622 0.312500
vt 0.477454 0.312500
vt 0.479167 0.319479
vt 0.479167 0.680081
vt 0.459696 0.688440
vt 0.623711 0.312500
vt 0.623483 0.312500
vt 0.623728 0.688440
vt 0.605880 0.688440
vt 0.604167 0.320997
vt 0.375000 0.318888
vt 0.375981 0.318170
vt 0.394488 0.336782
vt 0.415408 0.335208
vt 0.436367 0.332953
vt 0.458333 0.318888
vt 0.477438 0.325187
vt 0.607621 0.318250
vt 0.375490 0.679602
vt 0.375253 0.683871
vt 0.395833 0.677966
vt 0.394846 0.679539
vt 0.416667 0.678911
vt 0.416156 0.678441
vt 0.437500 0.678577
vt 0.437401 0.678856
vt 0.458080 0.683871
vt 0.457396 0.683188
vt 0.475712 0.682690
vt 0.605895 0.675753
vt 0.375000 0.320679
vt 0.375000 0.688440
vn 0.481559 -0.844988 -0.232586
vn 0.277483 -0.675559 -0.683098
vn 0.293663 -0.611841 -0.734447
vn 0.558924 -0.773207 -0.299592
vn -0.390642 -0.908920 0.145822
vn -0.379381 -0.909778 0.168449
vn -0.398093 -0.908013 0.130515
vn -0.398093 -0.908013 0.130515
vn -0.610453 -0.000005 0.792052
vn -0.927440 -0.000006 0.373973
vn -0.926506 -0.000006 0.376280
vn -0.604550 -0.000003 0.796567
vn -0.320941 -0.927799 0.190229
vn -0.320059 -0.927318 0.194020
vn -0.314757 -0.933988 0.169098
vn -0.317547 -0.932625 0.171391
vn 0.267448 -0.633436 -0.726107
vn 0.189283 -0.341852 -0.920494
vn 0.192548 -0.298225 -0.934873
vn 0.286053 -0.555113 -0.781040
vn -0.210704 0.000003 0.977550
vn -0.577869 0.000003 0.816130
vn -0.570535 0.000004 0.821273
vn -0.207403 0.000003 0.978256
vn -0.073570 -0.972737 0.219932
vn -0.060489 -0.971528 0.229072
vn -0.048195 -0.971336 0.232773
vn -0.047333 -0.971541 0.232094
vn 0.169048 -0.339762 -0.925194
vn -0.169048 -0.339763 -0.925194
vn -0.170681 -0.299671 -0.938651
vn 0.170706 -0.299514 -0.938697
vn 0.177798 -0.000000 0.984067
vn -0.177878 -0.000000 0.984053
vn -0.177802 -0.000000 0.984066
vn 0.177840 -0.000000 0.984059
vn 0.045116 -0.975861 0.213681
vn 0.046083 -0.975745 0.214007
vn 0.057834 -0.976345 0.208339
vn 0.069300 -0.977624 0.198616
vn -0.189283 -0.341852 -0.920494
vn -0.269366 -0.631613 -0.726985
vn -0.285517 -0.556916 -0.779951
vn -0.192558 -0.298350 -0.934831
vn 0.577700 -0.000005 0.816249
vn 0.210694 -0.000006 0.977552
vn 0.207528 -0.000005 0.978229
vn 0.570653 -0.000008 0.821191
vn 0.309095 -0.937224 0.161469
vn 0.305970 -0.938761 0.158460
vn 0.313671 -0.930753 0.187906
vn 0.314231 -0.931387 0.183786
vn -0.279028 -0.674507 -0.683508
vn -0.480959 -0.845098 -0.233426
vn -0.558011 -0.773531 -0.300456
vn -0.293130 -0.611441 -0.734993
vn 0.927373 0.000008 0.374138
vn 0.610280 0.000006 0.792186
vn 0.604670 0.000005 0.796476
vn 0.926541 0.000009 0.376195
vn 0.394556 -0.901830 0.176151
vn 0.407221 -0.900507 0.152509
vn 0.415369 -0.899286 0.136940
vn 0.415369 -0.899286 0.136940
vn -0.826962 -0.537241 0.165852
vn -0.826962 -0.537241 0.165852
vn -0.911525 -0.013189 0.411033
vn -0.576733 -0.791181 -0.203500
vn -0.082313 -0.000358 0.996606
vn -0.082313 -0.000358 0.996607
vn -0.082313 -0.000358 0.996606
vn -0.082313 -0.000358 0.996606
vn 0.826643 -0.537986 0.165024
vn 0.826643 -0.537986 0.165024
vn 0.576800 -0.791127 -0.203516
vn 0.911458 -0.013217 0.411182
vn 0.082318 0.000358 0.996606
vn 0.082318 0.000358 0.996606
vn 0.082318 0.000358 0.996606
vn 0.082318 0.000358 0.996606
vn 0.502548 0.796152 -0.337027
vn 0.492699 0.841754 -0.220675
vn 0.577819 0.766568 -0.280177
vn 0.527543 0.699250 -0.482440
vn -0.072417 0.869441 0.488701
vn -0.067090 0.868529 0.491077
vn -0.060298 0.871118 0.487358
vn -0.060391 0.871504 0.486655
vn -0.377716 0.905410 0.193814
vn -0.403054 0.901481 0.157732
vn -0.416973 0.898492 0.137280
vn -0.416973 0.898492 0.137280
vn 0.157756 0.660391 -0.734164
vn 0.492872 0.789744 -0.365215
vn 0.508169 0.739418 -0.441617
vn 0.182061 0.526681 -0.830338
vn -0.075142 0.927136 0.367114
vn -0.074890 0.926302 0.369264
vn -0.068747 0.928690 0.364429
vn -0.070108 0.928547 0.364534
vn -0.135507 0.657065 -0.741555
vn 0.135461 0.657070 -0.741559
vn 0.150632 0.534508 -0.831632
vn -0.151216 0.534775 -0.831354
vn 0.071516 0.923265 0.377449
vn 0.070235 0.923502 0.377109
vn 0.077797 0.920231 0.383565
vn 0.077195 0.921282 0.381157
vn -0.492771 0.790135 -0.364504
vn -0.157906 0.660413 -0.734112
vn -0.182763 0.526557 -0.830262
vn -0.508578 0.739322 -0.441306
vn 0.065414 0.869137 0.490226
vn 0.065270 0.868894 0.490676
vn 0.070240 0.867235 0.492919
vn 0.075111 0.868419 0.490109
vn -0.492697 0.841753 -0.220684
vn -0.502462 0.796699 -0.335861
vn -0.527363 0.699270 -0.482607
vn -0.578075 0.766325 -0.280313
vn 0.388086 0.909054 0.151691
vn 0.364199 0.912392 0.186813
vn 0.401534 0.906380 0.131321
vn 0.401534 0.906380 0.131321
vn -0.826962 0.537240 0.165852
vn -0.826962 0.537240 0.165852
vn -0.576413 0.791409 -0.203517
vn -0.911480 0.013201 0.411132
vn 0.826961 0.537243 0.165850
vn 0.826961 0.537243 0.165850
vn 0.911451 0.013195 0.411197
vn 0.576319 0.791482 -0.203499
vn 0.870302 -0.014277 -0.492312
vn 0.913677 -0.016831 -0.406092
vn 0.447397 -0.013885 -0.894228
vn 0.407315 -0.007541 -0.913256
vn 0.440461 0.010023 -0.897716
vn 0.867424 0.014065 -0.497371
vn 0.200848 -0.005157 -0.979609
vn 0.179100 -0.005385 -0.983816
vn 0.199568 0.009923 -0.979834
vn 0.410506 0.021371 -0.911608
vn 0.179111 0.010597 -0.983772
vn 0.913652 0.016946 -0.406145
vn -0.179105 -0.005380 -0.983815
vn -0.200858 -0.005149 -0.979607
vn -0.179093 0.010469 -0.983776
vn -0.199621 0.010145 -0.979821
vn -0.407246 -0.007957 -0.913284
vn -0.446872 -0.014288 -0.894484
vn -0.410669 0.021657 -0.911527
vn -0.440472 0.010268 -0.897707
vn -0.870459 -0.014343 -0.492031
vn -0.913679 -0.016796 -0.406089
vn -0.868154 0.014138 -0.496094
vn -0.913683 0.016956 -0.406074
vn 0.938888 0.000000 0.344222
vn 0.938888 0.000000 0.344222
vn -0.938888 0.000000 0.344222
vn -0.938888 0.000000 0.344222
vn -0.490739 -0.843933 -0.216685
vn -0.884385 0.000000 0.466758
vn -0.884385 0.000000 0.466758
vn -0.490846 0.843833 -0.216834
vn 0.490790 -0.843903 -0.216685
vn 0.490844 0.843833 -0.216835
vn 0.884386 0.000000 0.466755
vn 0.884386 0.000000 0.466755
vn -0.297813 -0.775130 0.557208
vn -0.297813 -0.775130 0.557208
vn -0.297813 -0.775130 0.557208
vn 0.329262 -0.772179 0.543440
vn 0.329262 -0.772179 0.543440
vn 0.329262 -0.772179 0.543440
vn -0.329265 0.772175 0.543443
vn -0.329265 0.772175 0.543443
vn -0.329265 0.772175 0.543443
vn 0.297814 0.775134 0.557201
vn 0.297814 0.775134 0.557201
vn 0.297814 0.775134 0.557201
s 1
g pCylinder1
usemtl initialShadingGroup
f 1/1/1 4/108/2 54/56/3 53/2/4
s 2
f 2/3/5 1/4/6 26/136/7 25/107/8
s 3
f 3/6/9 2/5/10 29/137/11 28/102/12
s 2
f 4/130/13 3/6/14 6/8/15 5/7/16
s 1
f 5/109/17 8/110/18 60/60/19 59/57/20
s 3
f 7/10/21 6/8/22 33/32/23 32/103/24
s 2
f 8/9/25 7/10/26 10/12/27 9/11/28
s 1
f 9/111/29 12/113/30 72/70/31 71/61/32
s 3
f 11/14/33 10/12/34 37/40/35 36/104/36
s 2
f 12/13/37 11/14/38 14/16/39 13/15/40
s 1
f 13/114/41 16/116/42 80/76/43 79/71/44
s 3
f 15/18/45 14/16/46 41/44/47 40/105/48
s 2
f 16/17/49 15/18/50 18/20/51 17/19/52
s 1
f 17/117/53 20/119/54 88/82/55 87/77/56
s 3
f 19/22/57 18/20/58 45/48/59 44/106/60
s 2
f 20/21/61 19/22/62 22/24/63 21/23/64
s 1
f 21/120/65 23/121/66 95/88/67 94/83/68
s off
f 23/135/69 22/24/70 48/52/71 47/25/72
s 1
f 24/26/73 26/27/74 100/55/75 99/128/76
s off
f 25/107/77 24/28/78 52/148/79 51/35/80
s 1
f 27/29/81 30/30/82 68/150/83 67/66/84
s 11
f 28/102/85 27/31/86 34/140/87 33/32/88
f 30/33/89 29/34/90 51/35/91 50/36/92
s 1
f 31/37/93 34/38/94 62/65/95 61/112/96
s 11
f 32/103/97 31/39/98 38/142/99 37/40/100
s 1
f 35/41/101 38/42/102 74/64/103 73/115/104
s 11
f 36/104/105 35/43/106 42/144/107 41/44/108
s 1
f 39/45/109 42/46/110 82/75/111 81/118/112
s 11
f 40/105/113 39/47/114 46/146/115 45/48/116
s 1
f 43/49/117 46/50/118 90/81/119 89/123/120
s 11
f 44/106/121 43/51/122 49/147/123 48/52/124
s 1
f 47/122/125 49/53/126 98/87/127 97/89/128
f 50/127/129 52/54/130 104/93/131 103/69/132
f 53/125/4 56/100/133 101/91/134 100/55/75
f 55/58/135 54/56/3 59/57/20 58/94/136
f 56/149/133 55/58/135 66/67/137 65/59/138
f 57/62/139 60/60/19 71/61/32 70/96/140
f 58/94/136 57/62/139 64/63/141 63/95/142
f 61/112/96 64/63/141 75/73/143 74/64/103
f 63/95/142 62/65/95 67/66/84 66/67/137
f 65/101/138 68/68/83 103/69/132 102/92/144
f 69/72/145 72/70/31 79/71/44 78/97/146
f 70/96/140 69/72/145 76/74/147 75/73/143
f 73/115/104 76/74/147 83/79/148 82/75/111
f 77/78/149 80/76/43 87/77/56 86/98/150
f 78/97/146 77/78/149 84/80/151 83/79/148
f 81/118/112 84/80/151 91/85/152 90/81/119
f 85/84/153 88/82/55 94/83/68 93/99/154
f 86/98/150 85/84/153 92/86/155 91/85/152
f 89/123/120 92/86/155 96/90/156 98/87/127
f 93/99/154 95/88/67 97/89/128 96/90/156
f 99/128/76 101/91/134 102/92/144 104/93/131
f 55/58/135 58/94/136 63/95/142 66/67/137
f 57/62/139 70/96/140 75/73/143 64/63/141
f 69/72/145 78/97/146 83/79/148 76/74/147
f 77/78/149 86/98/150 91/85/152 84/80/151
f 85/84/153 93/99/154 96/90/156 92/86/155
f 101/91/134 56/100/133 65/101/138 102/92/144
s 3
f 3/6/9 28/102/12 33/32/23 6/8/22
f 7/10/21 32/103/24 37/40/35 10/12/34
f 11/14/33 36/104/36 41/44/47 14/16/46
f 15/18/45 40/105/48 45/48/59 18/20/58
f 19/22/57 44/106/60 48/52/157 22/24/158
f 25/107/159 51/35/160 29/34/11 2/3/10
s 1
f 4/108/2 5/109/17 59/57/20 54/56/3
f 34/38/94 27/29/81 67/66/84 62/65/95
f 8/110/18 9/111/29 71/61/32 60/60/19
f 38/42/102 31/37/93 61/112/96 74/64/103
f 12/113/30 13/114/41 79/71/44 72/70/31
f 42/46/110 35/41/101 73/115/104 82/75/111
f 16/116/42 17/117/53 87/77/56 80/76/43
f 46/50/118 39/45/109 81/118/112 90/81/119
f 20/119/54 21/120/161 94/83/68 88/82/55
f 23/121/162 47/122/163 97/89/128 95/88/67
f 49/53/164 43/49/117 89/123/120 98/87/127
f 26/27/165 1/124/1 53/125/4 100/55/75
f 30/126/82 50/127/166 103/69/132 68/68/83
f 52/54/167 24/26/168 99/128/76 104/93/131
s 2
f 1/129/6 2/5/5 3/6/14 4/130/13
f 5/7/16 6/8/15 7/10/26 8/131/25
f 9/11/28 10/12/27 11/14/38 12/132/37
f 13/15/40 14/16/39 15/18/50 16/133/49
f 17/19/52 18/20/51 19/22/62 20/134/61
s off
f 21/23/169 22/24/170 23/135/171
f 24/28/172 25/107/173 26/136/174
s 11
f 27/31/86 28/102/85 29/137/90 30/138/89
f 31/139/98 32/103/97 33/32/88 34/140/87
f 35/141/106 36/104/105 37/40/100 38/142/99
f 39/143/114 40/105/113 41/44/108 42/144/107
f 43/145/122 44/106/121 45/48/116 46/146/115
s off
f 47/25/175 48/52/176 49/147/177
f 50/36/178 51/35/179 52/148/180
s 1
f 53/2/4 54/56/3 55/58/135 56/149/133
f 57/62/139 58/94/136 59/57/20 60/60/19
f 61/112/96 62/65/95 63/95/142 64/63/141
f 65/59/138 66/67/137 67/66/84 68/150/83
f 69/72/145 70/96/140 71/61/32 72/70/31
f 73/115/104 74/64/103 75/73/143 76/74/147
f 77/78/149 78/97/146 79/71/44 80/76/43
f 81/118/112 82/75/111 83/79/148 84/80/151
f 85/84/153 86/98/150 87/77/56 88/82/55
f 89/123/120 90/81/119 91/85/152 92/86/155
f 93/99/154 94/83/68 95/88/67
f 96/90/156 97/89/128 98/87/127
f 99/128/76 100/55/75 101/91/134
f 102/92/144 103/69/132 104/93/131
