# Blender v2.79 (sub 0) OBJ File: 'Assets.blend'
# www.blender.org
mtllib Sword.mtl
o Sword_Cube.002
v -0.008080 -0.194750 0.080099
v -0.080119 -0.194750 0.008061
v -0.030342 -0.194750 0.076573
v -0.050424 -0.194750 0.066341
v -0.066361 -0.194750 0.050404
v -0.076593 -0.194750 0.030322
v -0.080119 0.005007 0.008061
v -0.008080 0.005007 0.080099
v -0.076593 0.005007 0.030322
v -0.066361 0.005007 0.050404
v -0.050424 0.005007 0.066341
v -0.030342 0.005007 0.076573
v -0.080119 -0.194750 -0.008393
v -0.008080 -0.194750 -0.080432
v -0.076593 -0.194750 -0.030654
v -0.066361 -0.194750 -0.050736
v -0.050424 -0.194750 -0.066674
v -0.030342 -0.194750 -0.076906
v -0.008080 0.005007 -0.080432
v -0.080119 0.005007 -0.008393
v -0.030342 0.005007 -0.076906
v -0.050424 0.005007 -0.066674
v -0.066361 0.005007 -0.050736
v -0.076593 0.005007 -0.030654
v 0.080412 -0.194750 0.008061
v 0.008373 -0.194750 0.080099
v 0.076886 -0.194750 0.030322
v 0.066654 -0.194750 0.050404
v 0.050716 -0.194750 0.066341
v 0.030634 -0.194750 0.076573
v 0.008373 0.005007 0.080099
v 0.080412 0.005007 0.008061
v 0.030634 0.005007 0.076573
v 0.050716 0.005007 0.066341
v 0.066654 0.005007 0.050404
v 0.076886 0.005007 0.030322
v 0.008373 -0.194750 -0.080432
v 0.080412 -0.194750 -0.008393
v 0.030634 -0.194750 -0.076906
v 0.050716 -0.194750 -0.066674
v 0.066654 -0.194750 -0.050736
v 0.076886 -0.194750 -0.030654
v 0.080412 0.005007 -0.008393
v 0.008373 0.005007 -0.080432
v 0.076886 0.005007 -0.030654
v 0.066654 0.005007 -0.050736
v 0.050716 0.005007 -0.066674
v 0.030634 0.005007 -0.076906
v -0.060184 0.149651 0.148035
v -0.000413 0.817515 -0.001392
v -0.060184 0.149651 -0.150820
v 0.059358 0.149651 0.148035
v 0.059358 0.149651 -0.150820
v -0.060184 0.645929 0.148035
v -0.060184 0.645929 -0.150820
v 0.059358 0.645929 -0.150820
v 0.059358 0.645929 0.148035
v -0.088030 -0.018363 0.221604
v -0.088030 0.156870 0.221604
v -0.088030 -0.018363 -0.216477
v -0.088030 0.156870 -0.216477
v 0.087203 -0.018363 0.221604
v 0.087203 0.156870 0.221604
v 0.087203 -0.018363 -0.216477
v 0.087203 0.156870 -0.216477
vn 0.0000 0.0000 1.0000
vn 1.0000 0.0000 0.0000
vn 0.0000 1.0000 0.0000
vn -1.0000 0.0000 0.0000
vn 0.0000 0.0000 -1.0000
vn -0.1564 0.0000 0.9877
vn -0.4540 0.0000 0.8910
vn -0.7071 0.0000 0.7071
vn -0.8910 0.0000 0.4540
vn -0.9877 0.0000 0.1564
vn -0.1564 0.0000 -0.9877
vn -0.4540 0.0000 -0.8910
vn -0.7071 0.0000 -0.7071
vn -0.8910 0.0000 -0.4540
vn -0.9877 0.0000 -0.1564
vn 0.9877 0.0000 -0.1564
vn 0.8910 0.0000 -0.4540
vn 0.7071 -0.0000 -0.7071
vn 0.4540 -0.0000 -0.8910
vn 0.1564 0.0000 -0.9877
vn 0.1564 0.0000 0.9877
vn 0.4540 0.0000 0.8910
vn 0.7071 0.0000 0.7071
vn 0.8910 0.0000 0.4540
vn 0.9877 0.0000 0.1564
vn 0.0000 -1.0000 0.0000
vn -0.9443 0.3290 0.0000
vn 0.0000 0.6567 -0.7541
vn 0.9443 0.3290 0.0000
vn 0.0000 0.6567 0.7541
usemtl None
s off
f 26//1 31//1 8//1 1//1
f 38//2 43//2 32//2 25//2
f 43//3 45//3 46//3 47//3 48//3 44//3 19//3 21//3 22//3 23//3 24//3 20//3 7//3 9//3 10//3 11//3 12//3 8//3 31//3 33//3 34//3 35//3 36//3 32//3
f 2//4 7//4 20//4 13//4
f 14//5 19//5 44//5 37//5
f 1//6 8//6 12//6 3//6
f 3//7 12//7 11//7 4//7
f 4//8 11//8 10//8 5//8
f 5//9 10//9 9//9 6//9
f 6//10 9//10 7//10 2//10
f 19//11 14//11 18//11 21//11
f 21//12 18//12 17//12 22//12
f 22//13 17//13 16//13 23//13
f 23//14 16//14 15//14 24//14
f 24//15 15//15 13//15 20//15
f 43//16 38//16 42//16 45//16
f 45//17 42//17 41//17 46//17
f 46//18 41//18 40//18 47//18
f 47//19 40//19 39//19 48//19
f 48//20 39//20 37//20 44//20
f 31//21 26//21 30//21 33//21
f 33//22 30//22 29//22 34//22
f 34//23 29//23 28//23 35//23
f 35//24 28//24 27//24 36//24
f 36//25 27//25 25//25 32//25
f 13//26 15//26 16//26 17//26 18//26 14//26 37//26 39//26 40//26 41//26 42//26 38//26 25//26 27//26 28//26 29//26 30//26 26//26 1//26 3//26 4//26 5//26 6//26 2//26
f 49//4 54//4 55//4 51//4
f 51//5 55//5 56//5 53//5
f 53//2 56//2 57//2 52//2
f 52//1 57//1 54//1 49//1
f 51//26 53//26 52//26 49//26
f 50//27 55//27 54//27
f 50//28 56//28 55//28
f 50//29 57//29 56//29
f 50//30 54//30 57//30
f 58//4 59//4 61//4 60//4
f 60//5 61//5 65//5 64//5
f 64//2 65//2 63//2 62//2
f 62//1 63//1 59//1 58//1
f 60//26 64//26 62//26 58//26
f 65//3 61//3 59//3 63//3
